<mxfile host="app.diagrams.net" modified="2024-01-17T04:43:14.146Z" agent="Mozilla/5.0 (Windows NT 10.0; Win64; x64) AppleWebKit/537.36 (KHTML, like Gecko) Chrome/114.0.0.0 Safari/537.36 Edg/114.0.1823.82" version="22.1.20" etag="r85RDP3znwHzg7Iyb0TR" type="github">
  <diagram name="Page-1" id="oJAPtkm7zM2oTkeTLglb">
    <mxGraphModel>
      <root>
        <mxCell id="0" />
        <mxCell id="1" parent="0" />
      </root>
    </mxGraphModel>
  </diagram>
</mxfile>
